# MagicaVoxel @ Ephtracy

# material
mtllib tapak2 ijo dgn rumput.mtl
usemtl palette

# normals
vn -1 0 0
vn 1 0 0
vn 0 0 1
vn 0 0 -1
vn 0 -1 0
vn 0 1 0

# texcoords
vt 0.943359 0.5
vt 0.970703 0.5
vt 0.974609 0.5

# verts
v 32 0 15
v 32 0 -8
v 32 6 15
v 32 6 3
v 32 6 1
v 32 6 -3
v 32 6 -5
v 32 6 -8
v 32 7 15
v 32 7 14
v 32 7 12
v 32 7 11
v 32 7 9
v 32 7 7
v 32 7 -5
v 32 7 -8
v 32 9 15
v 32 9 14
v 32 9 7
v 32 9 5
v 32 9 1
v 32 9 -0
v 32 10 14
v 32 10 12
v 32 10 3
v 32 10 -0
v 32 10 -5
v 32 10 -8
v 32 11 14
v 32 11 11
v 32 11 7
v 32 11 5
v 32 12 -6
v 32 12 -8
v 32 13 9
v 32 13 7
v 32 13 4
v 32 13 -0
v 32 13 -3
v 32 13 -5
v 32 15 13
v 32 15 10
v 32 17 15
v 32 17 14
v 32 17 13
v 32 17 10
v 32 17 2
v 32 17 -0
v 32 18 15
v 32 18 14
v 32 18 -6
v 32 18 -8
v 32 19 4
v 32 19 2
v 32 24 15
v 32 24 -8
v 32 27 15
v 32 27 -8
v 39 27 10
v 39 27 9
v 39 30 10
v 39 30 9
v 50 27 8
v 50 27 7
v 50 30 8
v 50 30 7
v 52 27 -2
v 52 27 -3
v 52 29 -2
v 52 29 -3
v 40 27 10
v 40 27 9
v 40 30 10
v 40 30 9
v 51 27 8
v 51 27 7
v 51 30 8
v 51 30 7
v 53 27 -2
v 53 27 -3
v 53 29 -2
v 53 29 -3
v 56 0 15
v 56 0 -8
v 56 1 3
v 56 1 1
v 56 2 -5
v 56 2 -7
v 56 3 12
v 56 3 8
v 56 4 12
v 56 4 8
v 56 4 3
v 56 4 1
v 56 5 -5
v 56 5 -7
v 56 6 15
v 56 6 14
v 56 6 12
v 56 6 5
v 56 6 2
v 56 6 -5
v 56 9 9
v 56 9 6
v 56 9 5
v 56 9 2
v 56 9 -0
v 56 9 -3
v 56 9 -5
v 56 9 -8
v 56 10 14
v 56 10 12
v 56 11 9
v 56 11 6
v 56 11 -0
v 56 11 -3
v 56 13 14
v 56 13 8
v 56 13 -3
v 56 13 -5
v 56 14 14
v 56 14 8
v 56 14 3
v 56 14 1
v 56 15 -3
v 56 15 -5
v 56 19 3
v 56 19 1
v 56 24 15
v 56 24 -8
v 56 27 15
v 56 27 -8
v 32 0 15
v 32 6 15
v 32 7 15
v 32 9 15
v 32 17 15
v 32 18 15
v 32 24 15
v 32 27 15
v 33 13 15
v 33 14 15
v 34 7 15
v 34 9 15
v 34 17 15
v 34 18 15
v 36 8 15
v 36 11 15
v 37 13 15
v 37 14 15
v 38 3 15
v 38 4 15
v 39 8 15
v 39 11 15
v 39 17 15
v 39 21 15
v 40 3 15
v 40 4 15
v 40 14 15
v 40 16 15
v 40 17 15
v 40 21 15
v 41 14 15
v 41 16 15
v 42 2 15
v 42 3 15
v 42 6 15
v 42 10 15
v 42 12 15
v 42 16 15
v 43 10 15
v 43 11 15
v 44 10 15
v 44 11 15
v 44 12 15
v 44 16 15
v 45 2 15
v 45 3 15
v 46 6 15
v 46 10 15
v 46 13 15
v 46 16 15
v 49 9 15
v 49 11 15
v 49 13 15
v 49 16 15
v 51 6 15
v 51 9 15
v 51 11 15
v 51 14 15
v 52 17 15
v 52 18 15
v 54 6 15
v 54 14 15
v 55 17 15
v 55 18 15
v 56 0 15
v 56 6 15
v 56 24 15
v 56 27 15
v 39 27 10
v 39 30 10
v 40 27 10
v 40 30 10
v 50 27 8
v 50 30 8
v 51 27 8
v 51 30 8
v 52 27 -2
v 52 29 -2
v 53 27 -2
v 53 29 -2
v 39 27 9
v 39 30 9
v 40 27 9
v 40 30 9
v 50 27 7
v 50 30 7
v 51 27 7
v 51 30 7
v 52 27 -3
v 52 29 -3
v 53 27 -3
v 53 29 -3
v 32 0 -8
v 32 6 -8
v 32 7 -8
v 32 10 -8
v 32 12 -8
v 32 18 -8
v 32 24 -8
v 32 27 -8
v 33 6 -8
v 33 7 -8
v 33 12 -8
v 33 18 -8
v 35 6 -8
v 35 10 -8
v 36 13 -8
v 36 15 -8
v 37 6 -8
v 37 10 -8
v 37 16 -8
v 37 19 -8
v 39 6 -8
v 39 10 -8
v 39 16 -8
v 39 19 -8
v 40 13 -8
v 40 15 -8
v 42 6 -8
v 42 8 -8
v 42 11 -8
v 42 13 -8
v 42 15 -8
v 42 17 -8
v 43 6 -8
v 43 8 -8
v 44 8 -8
v 44 10 -8
v 47 1 -8
v 47 3 -8
v 47 15 -8
v 47 17 -8
v 48 8 -8
v 48 10 -8
v 48 11 -8
v 48 13 -8
v 49 1 -8
v 49 3 -8
v 49 6 -8
v 49 9 -8
v 50 6 -8
v 50 9 -8
v 52 11 -8
v 52 13 -8
v 52 15 -8
v 52 17 -8
v 53 15 -8
v 53 17 -8
v 54 6 -8
v 54 9 -8
v 54 11 -8
v 54 13 -8
v 56 0 -8
v 56 9 -8
v 56 24 -8
v 56 27 -8
v 32 0 15
v 56 0 15
v 33 0 14
v 55 0 14
v 33 0 -7
v 55 0 -7
v 32 0 -8
v 56 0 -8
v 32 27 15
v 56 27 15
v 39 27 10
v 40 27 10
v 39 27 9
v 40 27 9
v 50 27 8
v 51 27 8
v 50 27 7
v 51 27 7
v 52 27 -2
v 53 27 -2
v 52 27 -3
v 53 27 -3
v 32 27 -8
v 56 27 -8
v 52 29 -2
v 53 29 -2
v 52 29 -3
v 53 29 -3
v 39 30 10
v 40 30 10
v 39 30 9
v 40 30 9
v 50 30 8
v 51 30 8
v 50 30 7
v 51 30 7

# faces
f 3/1/1 2/1/1 1/1/1
f 4/1/1 2/1/1 3/1/1
f 5/1/1 2/1/1 4/1/1
f 6/1/1 2/1/1 5/1/1
f 7/1/1 2/1/1 6/1/1
f 8/1/1 2/1/1 7/1/1
f 9/3/1 4/3/1 3/3/1
f 10/3/1 4/3/1 9/3/1
f 11/3/1 4/3/1 10/3/1
f 12/3/1 4/3/1 11/3/1
f 13/3/1 4/3/1 12/3/1
f 14/3/1 4/3/1 13/3/1
f 15/1/1 7/1/1 6/1/1
f 15/3/1 8/3/1 7/3/1
f 16/3/1 8/3/1 15/3/1
f 17/1/1 10/1/1 9/1/1
f 18/3/1 11/3/1 10/3/1
f 18/1/1 10/1/1 17/1/1
f 19/3/1 4/3/1 14/3/1
f 19/1/1 14/1/1 13/1/1
f 20/3/1 4/3/1 19/3/1
f 21/1/1 5/1/1 4/1/1
f 21/3/1 6/3/1 5/3/1
f 22/3/1 6/3/1 21/3/1
f 23/3/1 11/3/1 18/3/1
f 23/3/1 18/3/1 17/3/1
f 24/1/1 12/1/1 11/1/1
f 24/3/1 11/3/1 23/3/1
f 25/3/1 4/3/1 20/3/1
f 25/1/1 22/1/1 21/1/1
f 25/1/1 21/1/1 4/1/1
f 26/3/1 6/3/1 22/3/1
f 26/1/1 22/1/1 25/1/1
f 27/1/1 15/1/1 6/1/1
f 27/1/1 16/1/1 15/1/1
f 28/1/1 16/1/1 27/1/1
f 29/1/1 24/1/1 23/1/1
f 29/3/1 23/3/1 17/3/1
f 30/1/1 12/1/1 24/1/1
f 30/1/1 24/1/1 29/1/1
f 30/3/1 13/3/1 12/3/1
f 31/1/1 20/1/1 19/1/1
f 31/1/1 19/1/1 13/1/1
f 32/3/1 25/3/1 20/3/1
f 32/1/1 20/1/1 31/1/1
f 32/3/1 26/3/1 25/3/1
f 33/3/1 28/3/1 27/3/1
f 34/3/1 28/3/1 33/3/1
f 35/3/1 13/3/1 30/3/1
f 35/1/1 31/1/1 13/1/1
f 35/3/1 30/3/1 29/3/1
f 36/3/1 32/3/1 31/3/1
f 36/1/1 31/1/1 35/1/1
f 37/3/1 26/3/1 32/3/1
f 37/3/1 32/3/1 36/3/1
f 38/3/1 6/3/1 26/3/1
f 38/3/1 26/3/1 37/3/1
f 39/1/1 27/1/1 6/1/1
f 39/3/1 6/3/1 38/3/1
f 40/3/1 33/3/1 27/3/1
f 40/1/1 27/1/1 39/1/1
f 41/3/1 36/3/1 35/3/1
f 41/3/1 37/3/1 36/3/1
f 41/3/1 35/3/1 29/3/1
f 42/3/1 37/3/1 41/3/1
f 43/3/1 29/3/1 17/3/1
f 43/3/1 41/3/1 29/3/1
f 44/3/1 41/3/1 43/3/1
f 45/1/1 42/1/1 41/1/1
f 45/3/1 41/3/1 44/3/1
f 46/3/1 37/3/1 42/3/1
f 46/1/1 42/1/1 45/1/1
f 47/1/1 38/1/1 37/1/1
f 48/3/1 40/3/1 39/3/1
f 48/1/1 38/1/1 47/1/1
f 48/3/1 39/3/1 38/3/1
f 49/1/1 44/1/1 43/1/1
f 50/3/1 45/3/1 44/3/1
f 50/1/1 44/1/1 49/1/1
f 50/3/1 46/3/1 45/3/1
f 51/1/1 34/1/1 33/1/1
f 51/3/1 33/3/1 40/3/1
f 51/3/1 48/3/1 47/3/1
f 51/3/1 40/3/1 48/3/1
f 52/1/1 34/1/1 51/1/1
f 53/3/1 46/3/1 50/3/1
f 53/3/1 50/3/1 49/3/1
f 53/3/1 37/3/1 46/3/1
f 53/1/1 47/1/1 37/1/1
f 54/3/1 52/3/1 51/3/1
f 54/1/1 47/1/1 53/1/1
f 54/3/1 51/3/1 47/3/1
f 55/3/1 53/3/1 49/3/1
f 55/3/1 54/3/1 53/3/1
f 56/3/1 52/3/1 54/3/1
f 56/3/1 54/3/1 55/3/1
f 57/2/1 56/2/1 55/2/1
f 58/2/1 56/2/1 57/2/1
f 61/2/1 60/2/1 59/2/1
f 62/2/1 60/2/1 61/2/1
f 65/2/1 64/2/1 63/2/1
f 66/2/1 64/2/1 65/2/1
f 69/2/1 68/2/1 67/2/1
f 70/2/1 68/2/1 69/2/1
f 71/2/2 72/2/2 73/2/2
f 73/2/2 72/2/2 74/2/2
f 75/2/2 76/2/2 77/2/2
f 77/2/2 76/2/2 78/2/2
f 79/2/2 80/2/2 81/2/2
f 81/2/2 80/2/2 82/2/2
f 83/1/2 84/1/2 85/1/2
f 85/1/2 84/1/2 86/1/2
f 86/1/2 84/1/2 87/1/2
f 87/1/2 84/1/2 88/1/2
f 83/1/2 85/1/2 89/1/2
f 89/1/2 85/1/2 90/1/2
f 83/1/2 89/1/2 91/1/2
f 89/3/2 90/3/2 91/3/2
f 90/1/2 85/1/2 92/1/2
f 91/3/2 90/3/2 92/3/2
f 85/3/2 86/3/2 93/3/2
f 92/1/2 85/1/2 93/1/2
f 86/1/2 87/1/2 94/1/2
f 93/3/2 86/3/2 94/3/2
f 91/1/2 92/1/2 95/1/2
f 94/1/2 87/1/2 95/1/2
f 93/1/2 94/1/2 95/1/2
f 92/1/2 93/1/2 95/1/2
f 87/3/2 88/3/2 95/3/2
f 88/1/2 84/1/2 96/1/2
f 95/3/2 88/3/2 96/3/2
f 91/1/2 95/1/2 97/1/2
f 83/1/2 91/1/2 97/1/2
f 95/1/2 96/1/2 97/1/2
f 97/1/2 96/1/2 98/1/2
f 98/1/2 96/1/2 99/1/2
f 99/1/2 96/1/2 100/1/2
f 100/1/2 96/1/2 101/1/2
f 101/1/2 96/1/2 102/1/2
f 99/3/2 100/3/2 103/3/2
f 103/3/2 100/3/2 104/3/2
f 100/1/2 101/1/2 105/1/2
f 104/3/2 100/3/2 105/3/2
f 101/3/2 102/3/2 106/3/2
f 105/1/2 101/1/2 106/1/2
f 106/3/2 102/3/2 107/3/2
f 107/3/2 102/3/2 108/3/2
f 102/1/2 96/1/2 109/1/2
f 108/3/2 102/3/2 109/3/2
f 96/1/2 84/1/2 110/1/2
f 109/1/2 96/1/2 110/1/2
f 97/3/2 98/3/2 111/3/2
f 98/1/2 99/1/2 111/1/2
f 99/3/2 103/3/2 112/3/2
f 111/1/2 99/1/2 112/1/2
f 103/1/2 104/1/2 113/1/2
f 112/3/2 103/3/2 113/3/2
f 111/3/2 112/3/2 113/3/2
f 106/3/2 107/3/2 114/3/2
f 113/1/2 104/1/2 114/1/2
f 104/3/2 105/3/2 114/3/2
f 105/3/2 106/3/2 114/3/2
f 107/1/2 108/1/2 115/1/2
f 114/3/2 107/3/2 115/3/2
f 108/3/2 109/3/2 116/3/2
f 115/1/2 108/1/2 116/1/2
f 109/3/2 110/3/2 116/3/2
f 114/3/2 115/3/2 117/3/2
f 97/3/2 111/3/2 117/3/2
f 115/3/2 116/3/2 117/3/2
f 111/3/2 113/3/2 117/3/2
f 113/3/2 114/3/2 117/3/2
f 117/3/2 116/3/2 118/3/2
f 116/3/2 110/3/2 119/3/2
f 118/3/2 116/3/2 119/3/2
f 119/3/2 110/3/2 120/3/2
f 117/1/2 118/1/2 121/1/2
f 97/3/2 117/3/2 121/3/2
f 118/3/2 119/3/2 122/3/2
f 121/1/2 118/1/2 122/1/2
f 122/3/2 119/3/2 123/3/2
f 123/3/2 119/3/2 124/3/2
f 119/1/2 120/1/2 125/1/2
f 124/3/2 119/3/2 125/3/2
f 120/3/2 110/3/2 126/3/2
f 125/1/2 120/1/2 126/1/2
f 123/1/2 124/1/2 127/1/2
f 121/3/2 122/3/2 127/3/2
f 122/3/2 123/3/2 127/3/2
f 124/3/2 125/3/2 128/3/2
f 127/1/2 124/1/2 128/1/2
f 125/3/2 126/3/2 128/3/2
f 121/3/2 127/3/2 129/3/2
f 97/3/2 121/3/2 129/3/2
f 127/3/2 128/3/2 129/3/2
f 128/3/2 126/3/2 130/3/2
f 129/3/2 128/3/2 130/3/2
f 126/3/2 110/3/2 130/3/2
f 129/2/2 130/2/2 131/2/2
f 131/2/2 130/2/2 132/2/2
f 141/3/3 137/3/3 136/3/3
f 142/3/3 137/3/3 141/3/3
f 143/3/3 135/3/3 134/3/3
f 143/1/3 136/1/3 135/1/3
f 144/3/3 141/3/3 136/3/3
f 144/1/3 136/1/3 143/1/3
f 145/3/3 137/3/3 142/3/3
f 145/1/3 138/1/3 137/1/3
f 146/3/3 139/3/3 138/3/3
f 146/1/3 138/1/3 145/1/3
f 147/3/3 144/3/3 143/3/3
f 148/3/3 141/3/3 144/3/3
f 148/3/3 144/3/3 147/3/3
f 149/1/3 142/1/3 141/1/3
f 149/3/3 141/3/3 148/3/3
f 150/3/3 145/3/3 142/3/3
f 150/1/3 142/1/3 149/1/3
f 150/3/3 146/3/3 145/3/3
f 151/1/3 134/1/3 133/1/3
f 152/1/3 134/1/3 151/1/3
f 153/3/3 147/3/3 143/3/3
f 153/1/3 148/1/3 147/1/3
f 154/3/3 149/3/3 148/3/3
f 154/1/3 148/1/3 153/1/3
f 154/3/3 150/3/3 149/3/3
f 155/3/3 146/3/3 150/3/3
f 155/3/3 150/3/3 154/3/3
f 156/3/3 139/3/3 146/3/3
f 156/3/3 146/3/3 155/3/3
f 157/3/3 152/3/3 151/3/3
f 157/1/3 151/1/3 133/1/3
f 158/1/3 134/1/3 152/1/3
f 158/3/3 152/3/3 157/3/3
f 159/3/3 154/3/3 153/3/3
f 159/3/3 155/3/3 154/3/3
f 160/3/3 155/3/3 159/3/3
f 161/1/3 156/1/3 155/1/3
f 161/3/3 155/3/3 160/3/3
f 162/3/3 139/3/3 156/3/3
f 162/1/3 156/1/3 161/1/3
f 163/1/3 160/1/3 159/1/3
f 163/3/3 159/3/3 153/3/3
f 164/3/3 161/3/3 160/3/3
f 164/1/3 160/1/3 163/1/3
f 164/3/3 162/3/3 161/3/3
f 165/1/3 157/1/3 133/1/3
f 165/1/3 158/1/3 157/1/3
f 166/1/3 158/1/3 165/1/3
f 167/1/3 134/1/3 158/1/3
f 167/1/3 158/1/3 166/1/3
f 167/3/3 163/3/3 153/3/3
f 167/3/3 164/3/3 163/3/3
f 167/3/3 153/3/3 143/3/3
f 167/3/3 143/3/3 134/3/3
f 168/3/3 164/3/3 167/3/3
f 169/3/3 164/3/3 168/3/3
f 170/3/3 162/3/3 164/3/3
f 170/3/3 164/3/3 169/3/3
f 171/3/3 169/3/3 168/3/3
f 171/1/3 167/1/3 166/1/3
f 171/1/3 168/1/3 167/1/3
f 172/3/3 169/3/3 171/3/3
f 173/1/3 171/1/3 166/1/3
f 173/1/3 172/1/3 171/1/3
f 174/3/3 169/3/3 172/3/3
f 174/1/3 172/1/3 173/1/3
f 175/1/3 170/1/3 169/1/3
f 175/3/3 169/3/3 174/3/3
f 176/3/3 162/3/3 170/3/3
f 176/1/3 170/1/3 175/1/3
f 177/3/3 166/3/3 165/3/3
f 177/1/3 165/1/3 133/1/3
f 178/1/3 173/1/3 166/1/3
f 178/3/3 166/3/3 177/3/3
f 179/1/3 178/1/3 177/1/3
f 179/1/3 173/1/3 178/1/3
f 180/3/3 175/3/3 174/3/3
f 180/1/3 173/1/3 179/1/3
f 180/3/3 176/3/3 175/3/3
f 180/3/3 174/3/3 173/3/3
f 181/3/3 176/3/3 180/3/3
f 182/3/3 162/3/3 176/3/3
f 182/3/3 176/3/3 181/3/3
f 183/3/3 181/3/3 180/3/3
f 183/3/3 180/3/3 179/3/3
f 184/3/3 181/3/3 183/3/3
f 185/1/3 182/1/3 181/1/3
f 185/3/3 181/3/3 184/3/3
f 186/3/3 162/3/3 182/3/3
f 186/1/3 182/1/3 185/1/3
f 187/1/3 179/1/3 177/1/3
f 187/3/3 183/3/3 179/3/3
f 188/1/3 184/1/3 183/1/3
f 188/3/3 183/3/3 187/3/3
f 189/3/3 185/3/3 184/3/3
f 189/1/3 184/1/3 188/1/3
f 189/3/3 186/3/3 185/3/3
f 190/3/3 186/3/3 189/3/3
f 191/3/3 162/3/3 186/3/3
f 191/3/3 186/3/3 190/3/3
f 192/3/3 162/3/3 191/3/3
f 193/1/3 188/1/3 187/1/3
f 193/1/3 190/1/3 189/1/3
f 193/1/3 187/1/3 177/1/3
f 193/1/3 189/1/3 188/1/3
f 194/3/3 191/3/3 190/3/3
f 194/1/3 190/1/3 193/1/3
f 195/1/3 192/1/3 191/1/3
f 195/3/3 191/3/3 194/3/3
f 195/3/3 194/3/3 193/3/3
f 196/3/3 162/3/3 192/3/3
f 196/1/3 192/1/3 195/1/3
f 197/1/3 193/1/3 177/1/3
f 197/1/3 177/1/3 133/1/3
f 198/3/3 195/3/3 193/3/3
f 198/1/3 193/1/3 197/1/3
f 198/3/3 196/3/3 195/3/3
f 199/3/3 162/3/3 196/3/3
f 199/3/3 196/3/3 198/3/3
f 199/3/3 139/3/3 162/3/3
f 199/2/3 140/2/3 139/2/3
f 200/2/3 140/2/3 199/2/3
f 203/2/3 202/2/3 201/2/3
f 204/2/3 202/2/3 203/2/3
f 207/2/3 206/2/3 205/2/3
f 208/2/3 206/2/3 207/2/3
f 211/2/3 210/2/3 209/2/3
f 212/2/3 210/2/3 211/2/3
f 213/2/4 214/2/4 215/2/4
f 215/2/4 214/2/4 216/2/4
f 217/2/4 218/2/4 219/2/4
f 219/2/4 218/2/4 220/2/4
f 221/2/4 222/2/4 223/2/4
f 223/2/4 222/2/4 224/2/4
f 225/1/4 226/1/4 233/1/4
f 226/3/4 227/3/4 233/3/4
f 227/1/4 228/1/4 234/1/4
f 233/3/4 227/3/4 234/3/4
f 228/3/4 229/3/4 235/3/4
f 229/1/4 230/1/4 235/1/4
f 230/3/4 231/3/4 236/3/4
f 235/1/4 230/1/4 236/1/4
f 225/1/4 233/1/4 237/1/4
f 233/1/4 234/1/4 237/1/4
f 228/3/4 235/3/4 238/3/4
f 237/1/4 234/1/4 238/1/4
f 234/1/4 228/1/4 238/1/4
f 235/3/4 236/3/4 238/3/4
f 237/3/4 238/3/4 239/3/4
f 238/3/4 236/3/4 239/3/4
f 239/3/4 236/3/4 240/3/4
f 225/1/4 237/1/4 241/1/4
f 237/3/4 239/3/4 241/3/4
f 241/3/4 239/3/4 242/3/4
f 240/3/4 236/3/4 243/3/4
f 236/3/4 231/3/4 244/3/4
f 243/3/4 236/3/4 244/3/4
f 225/1/4 241/1/4 245/1/4
f 241/1/4 242/1/4 245/1/4
f 242/3/4 239/3/4 246/3/4
f 245/1/4 242/1/4 246/1/4
f 240/3/4 243/3/4 247/3/4
f 243/1/4 244/1/4 247/1/4
f 244/3/4 231/3/4 248/3/4
f 247/1/4 244/1/4 248/1/4
f 246/3/4 239/3/4 249/3/4
f 239/1/4 240/1/4 249/1/4
f 245/3/4 246/3/4 249/3/4
f 247/3/4 248/3/4 250/3/4
f 249/1/4 240/1/4 250/1/4
f 240/3/4 247/3/4 250/3/4
f 225/1/4 245/1/4 251/1/4
f 245/3/4 249/3/4 251/3/4
f 249/3/4 250/3/4 251/3/4
f 251/3/4 250/3/4 252/3/4
f 252/3/4 250/3/4 253/3/4
f 253/3/4 250/3/4 254/3/4
f 250/3/4 248/3/4 255/3/4
f 254/3/4 250/3/4 255/3/4
f 255/3/4 248/3/4 256/3/4
f 225/1/4 251/1/4 257/1/4
f 251/1/4 252/1/4 257/1/4
f 252/3/4 253/3/4 258/3/4
f 257/1/4 252/1/4 258/1/4
f 257/3/4 258/3/4 259/3/4
f 258/3/4 253/3/4 259/3/4
f 259/3/4 253/3/4 260/3/4
f 225/1/4 257/1/4 261/1/4
f 261/1/4 257/1/4 262/1/4
f 255/1/4 256/1/4 263/1/4
f 254/3/4 255/3/4 263/3/4
f 256/3/4 248/3/4 264/3/4
f 263/1/4 256/1/4 264/1/4
f 257/3/4 259/3/4 265/3/4
f 259/1/4 260/1/4 265/1/4
f 260/3/4 253/3/4 266/3/4
f 265/1/4 260/1/4 266/1/4
f 253/1/4 254/1/4 267/1/4
f 266/3/4 253/3/4 267/3/4
f 254/3/4 263/3/4 268/3/4
f 267/1/4 254/1/4 268/1/4
f 263/3/4 264/3/4 268/3/4
f 261/3/4 262/3/4 269/3/4
f 225/1/4 261/1/4 269/1/4
f 262/1/4 257/1/4 270/1/4
f 269/3/4 262/3/4 270/3/4
f 265/3/4 266/3/4 271/3/4
f 270/1/4 257/1/4 271/1/4
f 266/3/4 267/3/4 271/3/4
f 267/3/4 268/3/4 271/3/4
f 257/3/4 265/3/4 271/3/4
f 271/3/4 268/3/4 272/3/4
f 269/1/4 270/1/4 273/1/4
f 270/1/4 271/1/4 273/1/4
f 271/1/4 272/1/4 273/1/4
f 272/3/4 268/3/4 274/3/4
f 273/1/4 272/1/4 274/1/4
f 273/3/4 274/3/4 275/3/4
f 274/3/4 268/3/4 275/3/4
f 268/3/4 264/3/4 276/3/4
f 275/3/4 268/3/4 276/3/4
f 276/3/4 264/3/4 277/3/4
f 264/3/4 248/3/4 278/3/4
f 277/3/4 264/3/4 278/3/4
f 276/3/4 277/3/4 279/3/4
f 277/1/4 278/1/4 279/1/4
f 278/3/4 248/3/4 280/3/4
f 279/1/4 278/1/4 280/1/4
f 269/1/4 273/1/4 281/1/4
f 273/3/4 275/3/4 281/3/4
f 281/3/4 275/3/4 282/3/4
f 275/1/4 276/1/4 283/1/4
f 282/3/4 275/3/4 283/3/4
f 276/3/4 279/3/4 284/3/4
f 283/1/4 276/1/4 284/1/4
f 279/3/4 280/3/4 284/3/4
f 225/1/4 269/1/4 285/1/4
f 269/1/4 281/1/4 285/1/4
f 281/1/4 282/1/4 285/1/4
f 282/3/4 283/3/4 286/3/4
f 285/1/4 282/1/4 286/1/4
f 283/3/4 284/3/4 286/3/4
f 231/2/4 232/2/4 287/2/4
f 286/3/4 284/3/4 287/3/4
f 280/3/4 248/3/4 287/3/4
f 284/3/4 280/3/4 287/3/4
f 248/3/4 231/3/4 287/3/4
f 287/2/4 232/2/4 288/2/4
f 291/1/5 290/1/5 289/1/5
f 292/1/5 290/1/5 291/1/5
f 293/1/5 291/1/5 289/1/5
f 293/3/5 292/3/5 291/3/5
f 294/1/5 290/1/5 292/1/5
f 294/3/5 292/3/5 293/3/5
f 295/1/5 293/1/5 289/1/5
f 295/1/5 294/1/5 293/1/5
f 296/1/5 290/1/5 294/1/5
f 296/1/5 294/1/5 295/1/5
f 297/2/6 298/2/6 299/2/6
f 299/2/6 298/2/6 300/2/6
f 297/2/6 299/2/6 301/2/6
f 300/2/6 298/2/6 302/2/6
f 302/2/6 298/2/6 303/2/6
f 301/2/6 302/2/6 303/2/6
f 303/2/6 298/2/6 304/2/6
f 301/2/6 303/2/6 305/2/6
f 304/2/6 298/2/6 306/2/6
f 306/2/6 298/2/6 307/2/6
f 305/2/6 306/2/6 307/2/6
f 307/2/6 298/2/6 308/2/6
f 305/2/6 307/2/6 309/2/6
f 308/2/6 298/2/6 310/2/6
f 297/2/6 301/2/6 311/2/6
f 309/2/6 310/2/6 311/2/6
f 301/2/6 305/2/6 311/2/6
f 305/2/6 309/2/6 311/2/6
f 310/2/6 298/2/6 312/2/6
f 311/2/6 310/2/6 312/2/6
f 313/2/6 314/2/6 315/2/6
f 315/2/6 314/2/6 316/2/6
f 317/2/6 318/2/6 319/2/6
f 319/2/6 318/2/6 320/2/6
f 321/2/6 322/2/6 323/2/6
f 323/2/6 322/2/6 324/2/6
